<?xml version="1.0" encoding="UTF-8"?>
<svg id="Layer_1" data-name="Layer 1" xmlns="http://www.w3.org/2000/svg" viewBox="0 0 100 100">
  <defs>
    <style>
      .cls-1 {
        fill: #1372ae;
      }

      .cls-2 {
        fill: none;
      }
    </style>
  </defs>
  <rect class="cls-2" x="13.73" y="13.74" width="72.53" height="72.52"/>
  <g id="Group_877" data-name="Group 877">
    <path id="Path_21255" data-name="Path 21255" class="cls-1" d="m28.61,86.26h-1.13c-1.19-.54-1.88-1.8-1.68-3.09.06-3.72.02-7.44.02-11.17,0-.27-.03-.54-.04-.87-1.39,0-2.71.03-4.02,0-3.58-.12-6.67-2.52-7.68-5.96-.12-.43-.22-.87-.33-1.29V20.97c.05-.08.09-.16.11-.25.66-4.15,4.32-7.14,8.52-6.98h55.44c4.58-.08,8.36,3.56,8.44,8.14,0,.09,0,.18,0,.27.01,13.52.01,27.04,0,40.57,0,.66-.07,1.32-.22,1.96-.87,3.91-4.43,6.64-8.43,6.45h-32.57c-.56-.03-1.1.19-1.49.6-4.42,4.45-8.86,8.89-13.32,13.31-.51.44-1.05.85-1.62,1.22m1.74-7.76c.32-.31.51-.48.69-.66,3.39-3.39,6.79-6.76,10.15-10.17.66-.71,1.6-1.1,2.57-1.07,11.26.02,22.52.02,33.78,0,2.08.23,3.96-1.28,4.18-3.36.03-.26.03-.53,0-.8V22.43c.2-2.1-1.34-3.96-3.43-4.16-.25-.02-.5-.02-.75,0H22.44c-2.1-.21-3.96,1.32-4.17,3.42-.02.25-.02.5,0,.75,0,13.34,0,26.68,0,40.01-.21,2.08,1.3,3.95,3.39,4.16.26.03.52.03.78,0h5.38c1.25-.13,2.38.77,2.51,2.03.02.16.02.32,0,.47v9.39"/>
    <path id="Path_21256" data-name="Path 21256" class="cls-1" d="m56.1,34.86c1.31,0,2.77-.04,4.23,0,4.39.1,7.87,3.74,7.76,8.13,0,.01,0,.02,0,.04-.18,1.78-.47,3.55-.87,5.3-.26,1.39-.57,2.77-.84,4.16-.77,3.8-4.11,6.54-7.99,6.54-5.13.26-10.26-.54-15.06-2.36-.06-.01-.12-.02-.18-.02-.11.12-.23.26-.35.4-.79,1.09-2.02,1.77-3.36,1.89-1.29.12-2.58.06-3.85-.19-2.2-.6-3.73-2.61-3.7-4.89-.03-4.6-.03-9.2,0-13.81.04-2.8,2.27-5.09,5.08-5.18,1.41-.18,2.85.02,4.16.58.19.06.39.02.55-.11.87-.8,1.74-1.59,2.52-2.47.79-.93,1.2-2.12,1.16-3.34-.04-1.69.45-3.35,1.42-4.73,1.31-2,3.99-2.56,5.99-1.25.18.12.35.25.51.4,1.69,1.45,2.71,3.53,2.82,5.76.15,1.68.03,3.38.03,5.16m-5.69-7.4l-.26.02c-.1.81-.27,1.61-.29,2.42-.03,1.42-.38,2.81-1.02,4.08-1.11,1.98-2.63,3.7-4.47,5.04-.23.17-.38.43-.41.71-.02,3.42,0,6.84,0,10.26,0,2.12,0,2.11,2.01,2.83,4.04,1.33,8.3,1.9,12.55,1.67,1.7-.03,3.14-1.26,3.43-2.94.49-2.3.94-4.62,1.37-6.93.19-.75.27-1.53.23-2.3-.26-1.74-1.78-3-3.54-2.93-2.48,0-4.95.01-7.43,0-1.22.05-2.24-.89-2.3-2.11-.02-.43.09-.86.32-1.23.89-1.57,1.27-3.38,1.08-5.17.03-1.25-.42-2.47-1.25-3.41m-11,19.49v-5.74q0-1.84-1.83-1.83c-.98,0-1.17.21-1.17,1.22v12.03q0,1.89,1.88,1.87c.91,0,1.13-.22,1.13-1.12,0-2.15,0-4.3,0-6.44"/>
  </g>
</svg>