<?xml version="1.0" encoding="UTF-8"?>
<svg id="Layer_1" data-name="Layer 1" xmlns="http://www.w3.org/2000/svg" xmlns:xlink="http://www.w3.org/1999/xlink" viewBox="0 0 100 100">
  <defs>
    <style>
      .cls-1 {
        clip-path: url(#clippath);
      }

      .cls-2 {
        fill: none;
      }
    </style>
    <clipPath id="clippath">
      <rect class="cls-2" x="13.82" y="13.84" width="72.35" height="72.32"/>
    </clipPath>
  </defs>
  <g class="cls-1">
    <g id="Group_871" data-name="Group 871">
      <path id="Path_21240" data-name="Path 21240" d="m86.01,46.48c-.12-.9-.23-1.83-.38-2.73-3.46-19.66-22.21-32.8-41.87-29.34-19.66,3.46-32.8,22.21-29.34,41.87,2.52,14.32,13.38,25.74,27.56,28.98,1.14.25,2.33.41,3.49.55.56.07,1.13.14,1.7.23.16.03.31.06.46.09l.14.03h4.5l1.27-.17c.91-.12,1.86-.24,2.78-.39,14.4-2.53,25.85-13.49,28.99-27.77.23-1.11.38-2.27.52-3.39.07-.54.14-1.11.22-1.66.02-.15.06-.29.09-.43l.03-.12v-4.49c-.06-.41-.11-.83-.16-1.25m-12.83,26.76c-6.13,6.15-14.47,9.6-23.15,9.58h-.06c-18.13,0-32.83-14.71-32.83-32.84,0-18.13,14.71-32.83,32.84-32.83h.06c18.13.02,32.82,14.74,32.79,32.88-.01,8.71-3.48,17.06-9.66,23.21"/>
      <path id="Path_21241" data-name="Path 21241" d="m71.14,62.41l-7.51,6.32-6.82-5.72-6.8,5.72-6.81-5.72-6.81,5.72-7.52-6.32,2.14-2.55,5.37,4.51,6.81-5.72,6.81,5.72,6.81-5.72,6.81,5.72,5.37-4.51,2.16,2.55Z"/>
      <path id="Path_21242" data-name="Path 21242" d="m43.8,46.89l-7.72,7.73-2.22-2.23,5.5-5.5-5.6-5.5,2.28-2.26,7.77,7.76Z"/>
      <path id="Path_21243" data-name="Path 21243" d="m66.26,52.37l-2.27,2.27-7.81-7.81,7.77-7.77,2.19,2.21-5.52,5.5,5.65,5.61Z"/>
      <path id="Path_21244" data-name="Path 21244" d="m40.33,30.91l-9.97,5.22-1.55-2.95,9.97-5.23,1.55,2.96Z"/>
      <rect id="Rectangle_564" data-name="Rectangle 564" x="63.77" y="26.37" width="3.34" height="11.26" transform="translate(6.73 75.11) rotate(-62.35)"/>
    </g>
  </g>
</svg>