<?xml version="1.0" encoding="UTF-8"?>
<svg id="Layer_1" data-name="Layer 1" xmlns="http://www.w3.org/2000/svg" xmlns:xlink="http://www.w3.org/1999/xlink" viewBox="0 0 100 100">
  <defs>
    <style>
      .cls-1 {
        clip-path: url(#clippath);
      }

      .cls-2 {
        fill: none;
      }
    </style>
    <clipPath id="clippath">
      <rect class="cls-2" x="22.63" y="13.74" width="58.5" height="72.53"/>
    </clipPath>
  </defs>
  <rect class="cls-2" x="15.62" y="13.74" width="72.53" height="72.52"/>
  <g class="cls-1">
    <g id="Group_875" data-name="Group 875">
      <path id="Path_21248" data-name="Path 21248" d="m81.13,19.58c.24-2.99-1.99-5.6-4.98-5.84-.29-.02-.59-.02-.88,0H28.48c-.52-.01-1.05.03-1.56.12-2.63.57-4.45,2.97-4.28,5.65v58.5c-.02.65.05,1.3.2,1.93.44,1.72,1.71,3.11,3.39,3.68,1.75.6,3.69.28,5.16-.84.68-.56,1.53-.87,2.42-.89h.2c1.19.16,2.27.78,2.99,1.74l.14.15c1.49,1.57,3.54,2.46,5.7,2.48h0c2.15-.01,4.2-.9,5.67-2.46.08-.08.15-.16.23-.25.27-.33.59-.61.97-.83.72-.4,1.51-.66,2.32-.77,1.21.01,2.33.61,3.02,1.6l.24.25c1.48,1.56,3.53,2.44,5.68,2.46h0c2.14,0,4.18-.89,5.66-2.44.34-.36.7-.7,1.08-1.02,1.26-1.18,3.2-1.23,4.53-.12,1.65,1.39,3.98,1.64,5.89.64,1.96-.91,3.15-2.93,3-5.09V19.58m-4.06,58.65l-.02.08c-.02.07-.04.15-.07.22-.05.47-.3.89-.69,1.16-.57.18-1.2.07-1.68-.29-1.28-.96-2.83-1.49-4.43-1.51h0c-2.14-.02-4.2.83-5.71,2.35-.44.45-.9.88-1.38,1.28-1.24.97-2.98.97-4.22,0-.47-.38-.92-.8-1.34-1.24-1.47-1.52-3.5-2.38-5.61-2.39h0c-2.14.01-4.18.89-5.65,2.43l-.23.24c-.65.84-1.57,1.41-2.61,1.62-1.12.18-2.26-.18-3.08-.97l-.44-.41c-.58-.59-1.21-1.13-1.89-1.61-2.67-1.82-6.21-1.75-8.8.18-.5.38-1.14.5-1.74.32-.51-.37-.81-.96-.79-1.59.01-19.57,0-39.25,0-58.51,0-1.33.47-1.8,1.8-1.8h46.79c1.38,0,1.83.47,1.83,1.94v57.76c.03.25.02.51-.02.75"/>
      <path id="Path_21249" data-name="Path 21249" d="m67.49,29.33c.02.52-.17,1.02-.53,1.39-.5.45-1.16.68-1.83.64h-18.15c-.77.02-1.5-.35-1.93-.98-.35-.55-.39-1.25-.11-1.84.33-.79,1.14-1.29,1.99-1.22h0c3.08,0,6.16,0,9.24,0h8.92c1.47,0,2.39.77,2.4,2"/>
      <path id="Path_21250" data-name="Path 21250" d="m66.49,65.09c-.41.18-.85.28-1.3.27-2.27.02-4.57.02-6.79.02h-11.6c-.75.02-1.44-.39-1.78-1.06l-.02-.03c-.36-.62-.33-1.4.09-1.99v-.02c.44-.66,1.21-1.03,2-.94h18.3c.95-.02,1.79.6,2.03,1.52.23.87-.16,1.79-.96,2.22"/>
      <path id="Path_21251" data-name="Path 21251" d="m67.51,46.38c-.01.7-.39,1.33-.99,1.69-.31.18-.66.29-1.02.31-6.21.03-12.5.03-18.72,0h0c-1.11,0-2.01-.89-2.01-2,0-.86.55-1.63,1.37-1.91.34-.09.68-.12,1.03-.11h18.41c1.09.02,1.97.91,1.95,2.01"/>
      <path id="Path_21252" data-name="Path 21252" d="m41.14,46.33v.05c-.01,1.58-1.3,2.85-2.87,2.85h-.02c-1.56-.02-2.83-1.28-2.85-2.84-.02-1.58,1.25-2.88,2.84-2.9,0,0,0,0,0,0h.03c1.57,0,2.85,1.27,2.87,2.84"/>
      <path id="Path_21253" data-name="Path 21253" d="m41.14,63.36c0,1.58-1.27,2.87-2.86,2.88h-.01c-1.59,0-2.88-1.28-2.88-2.86,0-1.59,1.28-2.88,2.86-2.88h.02c1.57.02,2.84,1.29,2.86,2.86"/>
      <path id="Path_21254" data-name="Path 21254" d="m41.15,29.34c0,1.57-1.27,2.86-2.84,2.86-1.57,0-2.86-1.27-2.86-2.84,0-1.57,1.27-2.86,2.84-2.86,0,0,0,0,0,0h0c1.57,0,2.84,1.28,2.84,2.84"/>
    </g>
  </g>
</svg>