<?xml version="1.0" encoding="UTF-8"?>
<svg id="Layer_1" data-name="Layer 1" xmlns="http://www.w3.org/2000/svg" viewBox="0 0 100 100">
  <path id="Path_21226" data-name="Path 21226" d="m20.71,73.53c-4.47-.82-8.1-4.07-9.43-8.41-.39-1.27-.59-2.6-.59-3.93-.05-11.73-.06-23.45-.03-35.18-.29-6.68,4.89-12.33,11.57-12.63.36-.02.72-.02,1.08,0h53.76c6.67-.29,12.31,4.88,12.6,11.55.01.33.02.66,0,.99.04,11.77.04,23.53,0,35.3.26,6.67-4.93,12.28-11.59,12.54-.38.01-.75.01-1.13,0-9.9.03-19.79,0-29.69.04-.86.02-1.69.27-2.4.74-5.39,3.7-10.73,7.46-16.08,11.19-1.55,1.22-3.68,1.38-5.4.42-1.76-.88-2.82-2.73-2.68-4.7.04-2.59,0-5.19,0-7.93m4.92,8.31c.72-.49,1.22-.82,1.72-1.17,5.25-3.62,10.48-7.27,15.77-10.82.88-.58,1.91-.89,2.96-.92,10.24-.07,20.48-.04,30.71-.04,3.97.44,7.54-2.42,7.98-6.39.06-.51.06-1.03,0-1.54,0-11.57,0-23.15,0-34.72.42-3.99-2.48-7.56-6.47-7.98-.49-.05-.99-.05-1.49,0-17.69,0-35.37,0-53.06,0-.88-.01-1.75.09-2.61.29-3.33.85-5.57,3.97-5.31,7.39-.02,11.76-.02,23.53,0,35.29,0,.27,0,.53.03.8.2,3.8,3.32,6.79,7.12,6.84,2.35.06,3.15.88,3.06,3.23-.13,3.16-.27,6.31-.41,9.71"/>
  <path id="Path_21227" data-name="Path 21227" d="m46.39,33.26c-.23-1.83,1.06-3.5,2.89-3.73.29-.04.59-.04.88,0,2.29.09,3.58,1.4,3.33,3.55-.55,4.81-1.17,9.62-1.76,14.43-.03.76-.62,1.38-1.38,1.45-.84.12-1.64-.11-1.86-.96-.36-1.44-.63-2.89-.81-4.36-.47-3.56-.88-7.12-1.29-10.39"/>
  <path id="Path_21228" data-name="Path 21228" d="m53.67,54.33c.01,1.92-1.49,3.52-3.41,3.62-1.84-.02-3.33-1.49-3.39-3.32.01-1.91,1.5-3.49,3.41-3.62,1.84.03,3.33,1.5,3.38,3.34"/>
</svg>