<?xml version="1.0" encoding="UTF-8"?>
<svg id="Layer_1" data-name="Layer 1" xmlns="http://www.w3.org/2000/svg" viewBox="0 0 100 100">
  <defs>
    <style>
      .cls-1 {
        fill: #1372ae;
      }
    </style>
  </defs>
  <g id="Group_867" data-name="Group 867">
    <path id="Path_21229" data-name="Path 21229" class="cls-1" d="m28.98,86.7c-.29-.88-.59-1.79-.93-2.68-.15-.28-.38-.52-.65-.68-1.33-.96-3.15-.85-4.36.26-.53.39-.9.29-1.36-.19-1.71-1.78-3.47-3.52-5.23-5.24-.31-.29-.43-.56-.15-.94.08-.12.15-.26.2-.39q1.08-2.16.12-4.38c-.12-.23-.32-.4-.57-.49-.9-.33-1.82-.62-2.76-.94v-8.81c.91-.29,1.83-.59,2.72-.93.26-.14.49-.35.64-.6.98-1.38.85-3.26-.29-4.5-.3-.3-.3-.79,0-1.09.04-.04.09-.08.14-.11.2-.23.3-.54.29-.84.02-2.47,0-4.94,0-7.4-.11-7.07,4.27-13.42,10.92-15.83.14-.05.27-.12.41-.18-4.37-2.91-5.55-8.81-2.64-13.18,2.91-4.37,8.81-5.55,13.18-2.64s5.55,8.81,2.64,13.18c-.7,1.05-1.6,1.95-2.64,2.64.26.11.5.22.74.31,6.35,2.47,10.54,8.56,10.57,15.37.01,2.57,0,5.13.02,7.7.01.35.14.69.37.96.29.33.41.59.14.95-.08.13-.15.26-.2.39-1.08,2.17-1.1,2.18-.11,4.37.14.29.59.48.99.79.66-6.57,5.09-12.14,11.33-14.28-2.75-1.84-4.35-4.97-4.21-8.27.05-2.48,1.11-4.83,2.94-6.5,3.75-3.62,9.73-3.51,13.34.24.07.07.14.14.2.22,3.54,3.91,3.23,9.94-.67,13.48-.33.29-.67.57-1.03.81,6.72,2.32,11.26,8.6,11.36,15.7,1.84.53,2.31,1.16,2.31,3.1v1.11c0,1.89-.53,2.58-2.36,3.05v16.45l-55.37.02Zm52.96-16.5h-28.41c.18.74-.25.96-.83,1.11-.67.18-1.32.4-1.96.65-.24.09-.44.26-.57.49-.97,2.21-.96,2.21.12,4.38.06.14.12.27.2.39.29.37.16.63-.15.94-1.74,1.71-3.49,3.42-5.17,5.19-.5.53-.9.63-1.47.21-1.19-1.05-2.95-1.16-4.26-.28-.48.29-.75.52-.75,1.05h43.26v-14.13Zm-34.1,7.01c-.28-.56-.5-1.11-.81-1.61-.44-.55-.44-1.33,0-1.88.3-.39.51-.85.61-1.34.15-1.59,1.44-2.82,3.03-2.92.44-.06.52-.33.51-.73-.02-1.21,0-2.42,0-3.63s.02-1.3-1.17-1.58-1.96-.77-2.11-2.06c-.04-.35-.17-.67-.37-.96-.99-1.19-.95-2.92.09-4.06.29-.37.15-.64-.16-.94-.93-.88-1.86-1.76-2.71-2.73-.5-.56-.94-.69-1.54-.23-.94.9-2.41.92-3.39.06-.16-.12-.34-.2-.54-.23-1.64-.14-2.93-1.45-3.05-3.1-.11-.23-.33-.4-.59-.43-1.03-.04-2.07-.02-3.11-.02-1.82,0-1.86,0-2.37,1.71-.11.74-.69,1.32-1.43,1.42-.47.06-.91.23-1.31.48-1.22,1.02-3.02.99-4.2-.08-.36-.28-.6-.11-.88.17-.88.92-1.76,1.86-2.73,2.71-.5.29-.66.93-.37,1.42.04.07.09.13.14.19.86.9.9,2.31.09,3.26-.19.23-.31.51-.35.81-.13,1.54-1.39,2.74-2.94,2.8-.47.07-.56.36-.55.78.02,1.21,0,2.42,0,3.63s-.02,1.25,1.13,1.52c1.15.28,2.01.79,2.15,2.1.04.32.16.62.35.88,1.02,1.2.98,2.98-.09,4.14-.27.35-.15.59.15.88.96.93,1.92,1.85,2.82,2.83.45.48.83.61,1.37.21.98-.93,2.5-.97,3.52-.09.16.12.34.2.53.24,1.61.14,2.88,1.44,2.97,3.06.05.4.29.5.67.49,1.26-.02,2.52-.07,3.77,0,.86.06,1.35-.18,1.47-1.06.05-1.22,1.01-2.21,2.23-2.28.25-.03.48-.12.69-.26,1.24-1.03,3.05-1.01,4.27.06.25.09.52.05.73-.11,1.07-1.02,2.11-2.08,3.15-3.13.11-.13.22-.26.32-.4m19.93-44.97c-3.92,0-7.11,3.17-7.12,7.09,0,3.92,3.17,7.11,7.09,7.12,3.92,0,7.11-3.17,7.12-7.09,0-3.92-3.17-7.1-7.09-7.12M33.39,15.65c-3.92,0-7.11,3.18-7.1,7.11s3.18,7.11,7.11,7.1c3.92,0,7.1-3.18,7.1-7.1,0-3.92-3.19-7.1-7.11-7.11m-8.53,19.46c-3.05,2.23-5.04,5.62-5.5,9.37-.26,2.36-.14,4.78-.18,7.17.01.23.04.46.07.68.93-.95,1.74-1.81,2.59-2.64.29-.22.6-.4.93-.55v-7.37h2.35v9.05c.84-.34,1.57-.59,2.27-.94.29-.14.52-.37.66-.66.35-.88.63-1.81.96-2.78h2.32l-6.47-11.31m19.18,6.65v7.4c.32.14.62.31.9.52.84.84,1.65,1.72,2.48,2.58l.19-.13c0-1.89.07-3.79-.03-5.67-.05-1.38-.25-2.75-.6-4.09-.83-2.91-2.62-5.47-5.06-7.25l-6.46,11.33h2.35c.32.94.62,1.85.93,2.75.07.2.17.46.33.53.82.37,1.66.68,2.61,1.07v-9.04h2.36Zm40.23,23.72h-30.7v2.28h30.71v-2.28Zm-24.82-7.14v4.66h6.21l-6.43-11.25c-3.62,2.6-5.72,6.82-5.6,11.27h3.45v-4.67h2.37Zm22.51,4.68c-.04-4.46-2.15-8.64-5.71-11.32l-6.46,11.31h6.25v-4.66h2.35v4.68h3.57Zm-49.01-30.76c-.55,3.08-1.09,6.11-1.62,9.14-.02.12,0,.24.06.35.63,1.13,1.28,2.26,1.99,3.5.71-1.25,1.36-2.37,1.98-3.5.06-.21.06-.43,0-.64-.27-1.58-.54-3.16-.82-4.73-.24-1.37-.5-2.75-.75-4.11h-.84Zm34.78,23.19l-1.23,1.53q-.88,1.12-.19,2.35c.46.79.92,1.59,1.42,2.46.69-1.2,1.31-2.26,1.9-3.34.09-.2.08-.44-.02-.64-.59-.79-1.21-1.54-1.89-2.37m-1.58-1.83l-3.08-3.03q-.83-.83-1.82-.09l3.1,5.41,1.81-2.26m8.17-3.35c-.56-.09-1.17-.38-1.38-.2-1.25,1.12-2.41,2.35-3.62,3.57l1.8,2.23,3.2-5.58m-38.08-17.88l1.05,5.96,2.64-4.61-3.69-1.34m-9.44,1.35l2.64,4.61,1.04-5.95-3.69,1.34m40.85,17.87l2.56-2.58c-1.69-.33-3.44-.32-5.13.04l2.57,2.54"/>
    <rect id="Rectangle_559" data-name="Rectangle 559" class="cls-1" x="67.79" y="79.68" width="2.28" height="2.28"/>
    <rect id="Rectangle_560" data-name="Rectangle 560" class="cls-1" x="72.53" y="79.69" width="2.3" height="2.27"/>
    <rect id="Rectangle_561" data-name="Rectangle 561" class="cls-1" x="77.27" y="79.67" width="2.28" height="2.29"/>
    <path id="Path_21230" data-name="Path 21230" class="cls-1" d="m20.36,66.56c.03-7.2,5.89-13.01,13.08-12.98,7.2.03,13.01,5.89,12.98,13.08-.03,7.19-5.87,12.99-13.06,12.98-7.2-.03-13.02-5.88-13-13.08m13.08-10.61c-5.89-.03-10.69,4.72-10.71,10.61-.03,5.89,4.72,10.69,10.61,10.71,5.89.03,10.69-4.72,10.71-10.61,0-.01,0-.03,0-.04,0-5.87-4.74-10.64-10.61-10.67"/>
    <path id="Path_21231" data-name="Path 21231" class="cls-1" d="m34.23,68.33h1.67v1.67h-4.99v-1.66h1.64v-1.72h-1.65v-1.66h3.34v3.38"/>
    <path id="Path_21232" data-name="Path 21232" class="cls-1" d="m34.22,63.22h-1.64v-1.66h1.64v1.66"/>
  </g>
</svg>