<?xml version="1.0" encoding="UTF-8"?>
<svg id="Layer_1" data-name="Layer 1" xmlns="http://www.w3.org/2000/svg" viewBox="0 0 100 100">
  <defs>
    <style>
      .cls-1 {
        fill: #1372ae;
      }
    </style>
  </defs>
  <g id="Group_869" data-name="Group 869">
    <path id="Path_21233" data-name="Path 21233" class="cls-1" d="m67.91,13.3c.8.21,1.62.37,2.39.65,4.28,1.49,7.17,5.52,7.2,10.06.05,4.08.02,8.17,0,12.26.12.79-.42,1.53-1.2,1.66-.79.12-1.53-.42-1.66-1.2-.02-.15-.02-.3,0-.45v-11.75c.2-4.41-3.2-8.15-7.61-8.35-.23-.01-.47-.01-.7,0H24.47c-4.41-.18-8.12,3.25-8.3,7.66,0,.21,0,.42,0,.63v24.15c-.16,4.41,3.28,8.11,7.69,8.27.2,0,.4,0,.6,0h1.43c.81-.08,1.53.51,1.61,1.31,0,.1,0,.2,0,.3.02,1.17,0,2.35,0,3.52v.68l.17.09c.62-.65,1.24-1.3,1.87-1.94,1.07-1.09,2.17-2.16,3.23-3.25.44-.48,1.07-.75,1.72-.73,1.74.03,3.49,0,5.23,0,1.08,0,1.71.52,1.73,1.4s-.62,1.47-1.73,1.47c-1.47,0-2.96-.02-4.44.02-.36.02-.71.16-.98.41-2.25,2.21-4.47,4.45-6.7,6.68-.15.15-.29.31-.46.45-.55.58-1.47.61-2.05.07-.32-.3-.49-.73-.45-1.17v-6.24c-1.39-.19-2.76-.49-4.11-.88-3.81-1.28-6.56-4.62-7.08-8.61-.03-.11-.07-.22-.13-.32v-27.24c.05-.1.1-.21.13-.32.56-4.06,3.39-7.44,7.29-8.7.71-.26,1.47-.39,2.19-.59h45.01Z"/>
    <path id="Path_21234" data-name="Path 21234" class="cls-1" d="m82.58,65.51c.87,2.22-.12,4.73-2.27,5.77-.74.32-1.54.49-2.35.49-2.7.06-5.4.02-8.22.02.29.63.59,1.2.82,1.78.73,1.5,1.33,3.05,1.8,4.65.62,2.92-.32,5.95-2.5,7.99-.72.75-1.59.64-2.35-.25-1.5-1.79-2.99-3.6-4.48-5.41l-7.67-9.28s-.08-.09-.13-.14c-.67.14-1.35.24-2.03.29-2.06.04-4.11.02-6.17,0-1.44,0-1.95-.51-1.95-1.94v-24.22c0-1.47.48-1.94,1.92-1.94,2.13,0,4.25.02,6.38,0,1.01-.01,1.8.22,2.06,1.31h.11c1.81-.81,3.8-1.15,5.78-.97,5.58.05,11.13,0,16.7.02,2.22-.15,4.21,1.36,4.66,3.54.1.93.11,1.86.03,2.79.11.03.38.08.65.16,2.42.71,3.81,3.25,3.1,5.68-.14.49-.37.95-.67,1.37-.29.27-.3.73-.02,1.01,0,0,.02.02.02.02,1.46,2.05.98,4.89-1.07,6.35-.51.36-1.08.61-1.69.74-.16.04-.31.09-.51.15m-13.78,17.48c1.1-1.81,1.2-4.06.24-5.95-.92-1.96-1.87-3.92-2.78-5.87-.44-.67-.24-1.57.43-2.01.3-.19.65-.27,1-.22h10.32c.94.13,1.81-.52,1.94-1.46,0-.03,0-.07.01-.11.1-.93-.57-1.77-1.5-1.87-.12-.01-.24-.01-.36,0-1.76-.02-3.52,0-5.3,0-1.08,0-1.71-.62-1.64-1.54.06-.82.66-1.31,1.66-1.32h8.67c1.52,0,2.33-.59,2.32-1.73s-.81-1.71-2.33-1.71h-8.67c-1.08,0-1.71-.61-1.65-1.54.06-.84.67-1.32,1.72-1.32h9.03c.95.09,1.79-.61,1.88-1.56.09-.95-.61-1.79-1.56-1.88-.11,0-.21,0-.32,0-.84-.02-1.67,0-2.51,0h-6.59c-1.02,0-1.64-.53-1.66-1.39s.59-1.47,1.65-1.47h5.3c.95.08,1.78-.62,1.87-1.56.02-.2,0-.4-.05-.6-.2-.83-.88-1.28-1.99-1.28-5.58,0-11.13.04-16.7-.03-1.79-.07-3.56.27-5.19,1-.4.13-.66.52-.61.95.02,5.85.02,11.71,0,17.56-.01.54.18,1.07.54,1.47,3.21,3.85,6.41,7.71,9.6,11.59l3.23,3.89m-16.26-36.7h-4.52v22.27h4.52v-22.27Z"/>
    <path id="Path_21235" data-name="Path 21235" class="cls-1" d="m45.41,37.96h-20.79c-1.17,0-1.86-.54-1.86-1.43s.69-1.43,1.85-1.43h41.57c.31-.01.62.03.92.12.72.25,1.11,1.04.86,1.76-.14.4-.45.72-.86.86-.34.09-.7.13-1.06.12-6.88,0-13.76,0-20.64,0"/>
    <path id="Path_21236" data-name="Path 21236" class="cls-1" d="m41.54,28.78h-16.91c-1.17,0-1.85-.54-1.86-1.43s.69-1.43,1.85-1.43h33.9c.31,0,.62.03.92.12.72.26,1.1,1.06.84,1.78-.14.39-.45.7-.84.84-.32.09-.65.13-.99.12h-16.91"/>
    <path id="Path_21237" data-name="Path 21237" class="cls-1" d="m32.08,44.26h7.67c1.01,0,1.61.47,1.68,1.29.09.77-.45,1.47-1.22,1.56-.08.01-.16.01-.25,0-.91.03-1.81,0-2.72,0h-13.04c-.78-.02-1.4-.65-1.43-1.42,0-.78.64-1.42,1.42-1.42,1.02-.04,2.06,0,3.08-.01h4.8"/>
    <path id="Path_21238" data-name="Path 21238" class="cls-1" d="m66.62,28.77c-.78,0-1.41-.65-1.41-1.44s.65-1.41,1.44-1.41,1.41.65,1.41,1.44c-.03.77-.66,1.39-1.44,1.41"/>
    <path id="Path_21239" data-name="Path 21239" class="cls-1" d="m51.85,48.87c-.02.79-.67,1.41-1.46,1.39-.74-.02-1.34-.6-1.39-1.34,0-.8.63-1.45,1.43-1.47.77.03,1.39.65,1.42,1.42"/>
  </g>
</svg>