<?xml version="1.0" encoding="UTF-8"?>
<svg id="Layer_1" data-name="Layer 1" xmlns="http://www.w3.org/2000/svg" xmlns:xlink="http://www.w3.org/1999/xlink" viewBox="0 0 100 100">
  <defs>
    <style>
      .cls-1 {
        clip-path: url(#clippath);
      }

      .cls-2 {
        fill: none;
      }
    </style>
    <clipPath id="clippath">
      <rect class="cls-2" x="22.14" y="13.1" width="55.71" height="73.81"/>
    </clipPath>
  </defs>
  <g class="cls-1">
    <g id="Group_873" data-name="Group 873">
      <path id="Path_21245" data-name="Path 21245" d="m67.99,49.31v3.17c.41.1.84.18,1.24.31,3.53.97,6.09,4.03,6.42,7.68.5,3.43-1.1,6.82-4.05,8.62-.51.29-.8.84-.75,1.42.03,3.76,0,7.52.02,11.28.03.82-.24,1.62-.77,2.24-.19.2-.35.41-.5.64-.89,1.69-2.79,2.57-4.65,2.17-1.38-.08-2.48-1.19-2.52-2.58-.07-1.05-.06-2.11.03-3.16.19-.8.47-1.57.83-2.31-1.37-1.88-1.26-4.45.26-6.2-.79-.64-1.22-1.62-1.16-2.64,0-.25-.32-.57-.59-.74-4.26-2.68-5.53-8.31-2.85-12.57,1.41-2.23,3.71-3.75,6.32-4.15v-2.85c-.18.07-.35.12-.52.19-1.5.7-3.26.6-4.66-.27-1.75-1.03-3.53-2.02-5.2-3.15-1.63-1.13-3.5-1.84-5.46-2.09-3.69-.47-7.05-2.38-9.34-5.31-.86-1.23-2.16-2.1-3.63-2.42-.69-.08-1.38-.12-2.07-.13-.24.65-.58,1.26-1.01,1.8-.55.46-1.23.74-1.94.79-2.19.1-4.38.05-6.57.03-1.42.07-2.63-1.03-2.7-2.45,0-.09,0-.17,0-.26V15.86c-.09-1.42.99-2.65,2.41-2.74.12,0,.23,0,.35,0,1.96-.02,3.9.05,5.85-.02,1.58-.31,3.11.72,3.43,2.29h.92c3.46,0,6.93.09,10.39-.03,3.13-.12,6.26.31,9.24,1.29,3.49,1.15,7.05,2.07,10.56,3.14.69.22,1.32.59,1.83,1.1,3.29,3.32,6.53,6.71,9.81,10.04.8.76,1.12,1.89.83,2.95-1.13,5.09-2.22,10.19-3.33,15.28-.11,1.33-1.28,2.32-2.61,2.2-.37-.03-.73-.15-1.05-.34-.96-.53-1.89-1.11-2.78-1.75m3.84-.66c.06-.21.13-.4.17-.61,1.04-4.78,2.07-9.56,3.14-14.33.14-.44,0-.91-.34-1.21-3.13-3.18-6.25-6.41-9.39-9.63-.3-.3-.68-.52-1.08-.64-4.56-1.35-9.12-2.68-13.69-4-.44-.13-.89-.2-1.35-.2-4.76-.01-9.53-.01-14.29,0-.26,0-.52.02-.77.04v15.89c1.8-.26,3.64.13,5.19,1.09,1.09.8,2.08,1.71,2.98,2.72,1.82,2.18,4.39,3.61,7.21,4.01,2.45.3,4.79,1.19,6.82,2.59,1.62,1.12,3.36,2.07,5.07,3.06,1.15.67,2.61.28,3.28-.87.41-.7.44-1.56.07-2.28-.36-.59-.85-1.1-1.42-1.49-1.57-1.15-3.25-2.15-4.77-3.35-1.65-1.17-2.9-2.81-3.6-4.7-.87-2.36.33-4.98,2.69-5.85.68-.25,1.41-.34,2.13-.25,1.09.2,2.13.6,3.06,1.18,2.33,1.46,4.35,3.34,5.98,5.56.38.58.56,1.27.5,1.96-.17,1.94-.48,3.86-.76,5.79-.35,2.37.96,4.67,3.17,5.58m-6.5,6.47c-.41.13-.72.21-1.02.32-2.42.91-4.06,3.18-4.16,5.77-.17,2.66,1.35,5.13,3.78,6.2,1.07.53,1.18.76,1.11,1.86-.08.44-.01.9.19,1.3,1.25,1.74,1.29,2.42.03,4.11-.38.76-.36,1.67.07,2.41.98.96,1.04,2.52.13,3.54-.21.21-.35.46-.43.74-.05.94-.02,1.88-.02,2.97.66-.1,1.45.02,1.73-.3.66-.75,1.55-1.39,1.53-2.63-.05-4.03,0-8.06-.05-12.09-.1-.87.41-1.69,1.24-1.98,2.4-1.08,3.86-3.55,3.65-6.17-.13-2.59-1.79-4.84-4.22-5.73-.3-.11-.59-.17-.96-.3v4.17c0,.95-.51,1.54-1.29,1.54s-1.29-.59-1.3-1.53v-4.2M31.51,15.78h-6.72v20.68h6.72V15.78Zm34.73,25.86c.12-.86.19-1.5.3-2.13.42-2.75.43-2.75-1.51-4.7-1.29-1.43-2.84-2.58-4.58-3.4-.76-.48-1.75-.38-2.39.26-.75.69-.89,1.83-.32,2.68.54.97,1.24,1.84,2.07,2.57,2.03,1.63,4.2,3.11,6.46,4.75"/>
      <path id="Path_21246" data-name="Path 21246" d="m39.37,78.4c.55.38,1.03.98,1.48.96,1.05.17,2.11-.12,2.94-.78,2.33-2.41,4.76-4.72,7.11-7.12.74-.75,1.38-1.6,2.17-2.52.17.07.56.23.94.4,1.65.75,3.53.78,5.2.08.31-.15.66-.22,1.01-.22.57.03,1.03.47,1.08,1.04.13.61-.21,1.23-.8,1.44-1.83.87-3.89,1.07-5.85.59-.43-.15-.91-.02-1.21.33-2.63,2.66-5.31,5.25-7.93,7.91-.7.8-1.71,1.27-2.77,1.3-.14,0-.27.01-.4.05-1.88.58-3.91-.2-4.91-1.89-.82-1-.78-2.46.09-3.41.71-.82,1.48-1.57,2.31-2.27.7-.43,1.44-.78,2.22-1.06.38-2.29,2.29-4,4.6-4.13-.12-1.08.32-2.15,1.16-2.83.13-.12.06-.5,0-.74-1.15-4.89,1.89-9.79,6.78-10.94.67-.16,1.35-.24,2.04-.24.96,0,1.54.48,1.56,1.27s-.56,1.29-1.52,1.33c-3.58,0-6.47,2.9-6.47,6.48,0,.97.22,1.93.64,2.8.14.32.27.64.39.94-.06.08-.08.15-.12.16-1.17.13-2.03,1.15-1.98,2.32-.05,1.18-1.09,1.89-2.38,2.07-1.09.1-1.96.96-2.07,2.05-.12,1.07-.66,2-1.71,2.11-1.22.24-2.3.92-3.04,1.91-.15.15-.3.31-.59.62"/>
      <path id="Path_21247" data-name="Path 21247" d="m29.28,33.79c.02.29.02.59,0,.89-.06.71-.69,1.23-1.39,1.16-.63-.06-1.12-.56-1.17-1.18-.04-.57-.04-1.14,0-1.7-.02-.71.54-1.3,1.26-1.32,0,0,0,0,0,0,.72-.01,1.31.56,1.33,1.28,0,.02,0,.04,0,.07.01.27,0,.54,0,.81h0"/>
    </g>
  </g>
</svg>