<?xml version="1.0" encoding="UTF-8"?>
<svg id="Layer_1" data-name="Layer 1" xmlns="http://www.w3.org/2000/svg" viewBox="0 0 100 100">
  <defs>
    <style>
      .cls-1 {
        fill: #e2e2e2;
      }
    </style>
  </defs>
  <!-- <path class="cls-1" d="m5.18,73.65c.45-4.08,2.61-7.43,4.6-10.85,1.69-2.9,3.36-5.8,5.04-8.71,7.04-12.2,14.1-24.39,21.13-36.59,2.56-4.45,6.26-7.25,11.35-8.25,5.77-1.13,12.57,1.51,15.67,6.51,3.32,5.35,6.4,10.85,9.55,16.3,6.65,11.48,13.26,22.98,19.91,34.47,2.15,3.71,2.94,7.63,2.03,11.86-1.59,7.38-8.1,12.57-15.9,12.6-8.41.03-16.81,0-25.22,0-10.6,0-21.19,0-31.79,0-5.11,0-9.39-1.85-12.67-5.81-1.94-2.34-3.1-5.05-3.53-8.06-.03-.22-.1-.44-.15-.67,0-.93,0-1.87,0-2.8Zm44.68,10.11c9.45,0,18.91,0,28.36,0,2.69,0,5.06-.76,6.93-2.77,2.8-3,3.21-7.04,1.07-10.74-7.95-13.79-15.91-27.57-23.88-41.35-1.71-2.95-3.33-5.96-5.18-8.82-1.85-2.87-4.64-4.08-8.03-3.77-3.16.29-5.35,2.03-6.91,4.74-7.43,12.91-14.9,25.8-22.35,38.7-2.2,3.81-4.48,7.58-6.54,11.47-1.54,2.91-1.23,5.88.56,8.64,1.82,2.79,4.51,3.91,7.76,3.91,9.4,0,18.79,0,28.19,0Z"/> -->
  <path className="cls-1" d="m54.57,39.71c-.36,6.14-.71,12.28-1.07,18.42-.05.84-.01,1.7-.15,2.52-.28,1.68-1.73,2.84-3.4,2.81-1.67-.02-3.09-1.13-3.28-2.81-.26-2.28-.34-4.59-.48-6.89-.29-4.68-.55-9.37-.86-14.05-.26-3.92,3.24-6.69,6.58-5.14,2.17,1.01,2.81,2.88,2.67,5.13Z"/>
  <path className="cls-1" d="m49.91,75.81c-2.55-.07-4.54-2.17-4.48-4.72.06-2.48,2.19-4.5,4.67-4.45,2.53.05,4.49,2.17,4.41,4.78-.08,2.48-2.15,4.46-4.6,4.4Z"/>
</svg>