<?xml version="1.0" encoding="UTF-8"?>
<svg id="Layer_1" data-name="Layer 1" xmlns="http://www.w3.org/2000/svg" xmlns:xlink="http://www.w3.org/1999/xlink" viewBox="0 0 100 100">
  <defs>
    <style>
      .cls-1 {
        fill: #1372ae;
      }

      .cls-2 {
        clip-path: url(#clippath);
      }

      .cls-3 {
        fill: none;
      }
    </style>
    <clipPath id="clippath">
      <rect class="cls-3" x="25" y="25.04" width="50" height="49.92"/>
    </clipPath>
  </defs>
  <g class="cls-2">
    <g id="Group_803" data-name="Group 803">
      <path id="Path_21200" data-name="Path 21200" class="cls-1" d="m75,36.67c-.58.65-1.15,1.3-1.74,1.93-.36.4-.75.77-1.16,1.12-.39.27-.55.77-.4,1.22.22,1.01.37,2.05.55,3.07.2.66-.04,1.38-.59,1.79-.57.39-1.31.39-1.88,0-.98-.54-1.99-1.03-2.97-1.58-.26-.17-.59-.16-.85.01-1,.55-2.01,1.06-3.01,1.6-.55.36-1.26.36-1.79-.02-.55-.38-.8-1.07-.62-1.72.21-1.12.38-2.24.59-3.36.09-.31-.02-.65-.27-.86-.85-.78-1.66-1.61-2.49-2.41-.49-.41-.68-1.07-.48-1.68.18-.61.72-1.05,1.36-1.09,1.13-.15,2.25-.33,3.38-.48.37-.01.7-.25.83-.6.44-.99.95-1.96,1.43-2.94.33-.84,1.29-1.25,2.13-.92.42.17.75.49.92.91.49,1.02,1.01,2.03,1.5,3.06.08.24.31.42.56.44,1.08.13,2.15.33,3.23.46.8.01,1.51.51,1.79,1.26v.78Z"/>
      <path id="Path_21201" data-name="Path 21201" class="cls-1" d="m50.03,48.39h15.28c2.59-.17,4.83,1.79,5,4.38.01.21.01.42,0,.63v11.86c.17,2.59-1.79,4.83-4.38,5-.21.01-.43.01-.64,0-3.17,0-6.35,0-9.52,0-.29-.01-.57.1-.76.32-1.24,1.26-2.5,2.51-3.76,3.77-.53.69-1.52.82-2.22.29-.11-.08-.21-.18-.29-.29-1.27-1.26-2.53-2.54-3.81-3.79-.18-.17-.42-.26-.67-.27-3.21-.02-6.41-.01-9.62-.01-2.59.15-4.81-1.83-4.96-4.42-.01-.18-.01-.36,0-.54v-11.96c-.15-2.59,1.84-4.81,4.43-4.96.18-.01.36,0,.53,0h15.38m.02,6.25h-8.98c-1.2,0-2.41-.01-3.61,0-.86.02-1.54.74-1.51,1.59.02.71.51,1.31,1.2,1.47.22.04.45.06.68.05h24.36c.15,0,.29,0,.44,0,.6-.04,1.13-.43,1.33-1,.31-.8-.09-1.7-.89-2.02-.21-.08-.44-.12-.67-.1-4.12,0-8.23,0-12.35,0m-.05,6.25h-8.79c-1.25,0-2.51-.01-3.76,0-.86.02-1.54.74-1.51,1.59.02.71.51,1.31,1.2,1.47.22.04.45.06.68.05h24.36c.15,0,.29,0,.44,0,.62-.04,1.15-.45,1.35-1.04.29-.81-.13-1.7-.94-1.99-.2-.07-.41-.1-.62-.09-4.13,0-8.27,0-12.4,0"/>
      <path id="Path_21202" data-name="Path 21202" class="cls-1" d="m27.71,44.35c.2-1.16.4-2.46.64-3.76.06-.23-.02-.48-.21-.63-.84-.8-1.65-1.61-2.49-2.41-.53-.41-.76-1.1-.57-1.74.19-.65.77-1.1,1.45-1.12,1.14-.15,2.28-.34,3.43-.49.29-.02.55-.2.65-.48.49-1.04,1.02-2.07,1.52-3.11.31-.82,1.23-1.23,2.05-.92.43.16.77.51.93.94.5,1.06,1.04,2.1,1.54,3.15.09.23.3.38.54.4,1.21.16,2.41.35,3.62.53.62.05,1.15.48,1.32,1.08.2.59.03,1.24-.44,1.65-.83.81-1.64,1.63-2.49,2.41-.29.24-.41.63-.3.99.21,1.13.39,2.27.59,3.41.16.85-.39,1.67-1.24,1.83-.35.07-.71.01-1.02-.15-1.1-.56-2.19-1.14-3.28-1.73-.2-.13-.47-.13-.67,0-1.09.58-2.18,1.17-3.28,1.72-.76.41-1.71.12-2.12-.64-.15-.28-.21-.6-.18-.91"/>
      <path id="Path_21203" data-name="Path 21203" class="cls-1" d="m45.68,41.52c-.88-.01-1.59-.74-1.58-1.62,0-.07,0-.14.02-.21.18-1.24.4-2.47.62-3.7.06-.25-.03-.52-.23-.68-.83-.78-1.63-1.59-2.45-2.38-.71-.53-.86-1.54-.33-2.25.3-.4.77-.65,1.27-.65,1.14-.16,2.29-.31,3.42-.5.22-.05.41-.19.53-.38.53-1.01,1.02-2.03,1.51-3.06.33-.85,1.28-1.28,2.14-.95.44.17.79.52.96.96.49,1.01,1,2.01,1.48,3.02.1.26.35.43.62.43,1.15.14,2.28.32,3.43.49.67.03,1.25.48,1.45,1.12.2.64-.02,1.34-.55,1.75-.82.79-1.62,1.6-2.46,2.37-.23.18-.32.48-.25.77.22,1.17.4,2.34.6,3.51.15.62-.1,1.27-.63,1.62-.52.37-1.21.38-1.75.04-1.02-.54-2.05-1.06-3.05-1.62-.27-.18-.62-.17-.89.01-1,.55-2.01,1.07-3.02,1.59-.28.12-.56.23-.86.32"/>
    </g>
  </g>
</svg>