<?xml version="1.0" encoding="UTF-8"?>
<svg id="Layer_1" data-name="Layer 1" xmlns="http://www.w3.org/2000/svg" xmlns:xlink="http://www.w3.org/1999/xlink" viewBox="0 0 100 100">
  <defs>
    <style>
      .cls-1 {
        fill: #1372ae;
      }

      .cls-2 {
        clip-path: url(#clippath);
      }

      .cls-3 {
        fill: none;
      }
    </style>
    <clipPath id="clippath">
      <rect class="cls-3" x="24.65" y="25" width="50.71" height="50"/>
    </clipPath>
  </defs>
  <g class="cls-2">
    <g id="Group_805" data-name="Group 805">
      <path id="Path_21216" data-name="Path 21216" class="cls-1" d="m62.31,60.72v.63c0,2.74,0,5.47,0,8.21.09,1.71-1.22,3.17-2.93,3.26-1.46.08-2.78-.88-3.16-2.29-.09-.3-.26-.57-.5-.76-3.19-2.36-6.79-4.11-10.62-5.15-1.76-.51-3.56-.85-5.36-1.23-.35-.07-.43-.2-.43-.53,0-3.88,0-7.75,0-11.63,0-.39.15-.47.49-.53,4.83-.73,9.48-2.37,13.7-4.83.8-.48,1.55-1.04,2.31-1.58.17-.13.29-.31.35-.52.31-1.55,1.74-2.62,3.32-2.49,1.64.14,2.88,1.54,2.82,3.19.02,2.75,0,5.51,0,8.26v.64c1.27-.13,2.53.39,3.34,1.38.59.74.88,1.67.79,2.62-.13,1.97-1.71,3.28-4.13,3.35"/>
      <path id="Path_21217" data-name="Path 21217" class="cls-1" d="m36.71,42.93c-.49.2-.96.43-1.42.7-.56.38-.8.4-1.28-.07-.41-.41-.82-.81-1.23-1.23s-.42-.7-.07-1.11c.89-.95.84-2.43-.11-3.32-.41-.38-.93-.6-1.49-.63-.58-.06-.78-.27-.79-.85-.01-.61-.01-1.22,0-1.84-.05-.39.22-.75.62-.81.05,0,.11,0,.16,0,.91-.02,1.72-.58,2.06-1.43.38-.83.22-1.81-.41-2.47-.4-.48-.38-.75.05-1.19.42-.42.83-.85,1.26-1.26.4-.39.7-.41,1.12-.06.65.64,1.62.82,2.46.47.88-.32,1.47-1.14,1.48-2.07.04-.58.27-.76.87-.76.61,0,1.22,0,1.84,0,.38-.06.74.21.79.59,0,.05,0,.09,0,.14,0,.93.57,1.77,1.44,2.1.85.38,1.85.2,2.51-.46.26-.29.71-.31,1-.05.03.03.06.06.08.09.42.42.84.84,1.26,1.26.47.48.48.73.04,1.27-.84.96-.74,2.41.22,3.25.09.08.18.15.28.21.35.2.74.32,1.14.37.59.1.81.29.81.89s0,1.19,0,1.78c0,.55-.21.78-.75.83-.93.02-1.75.6-2.09,1.46-.38.85-.19,1.84.47,2.5.29.26.31.7.05.99-.03.03-.06.06-.1.09-.41.41-.81.82-1.23,1.23-.51.5-.75.51-1.31.07-.98-.83-2.46-.71-3.29.27-.22.26-.38.56-.47.89-.02.08-.04.16-.05.25-.13.98-.2,1.05-1.17,1.05h-1.38c-.75,0-.92-.16-1-.91-.1-1.21-1.12-2.13-2.34-2.1l-.06-.13m4.19-2.99c2.43-.02,4.39-2.01,4.37-4.44s-2.01-4.39-4.44-4.37c-2.43.02-4.39,2.01-4.37,4.44.02,2.43,2.01,4.39,4.44,4.37"/>
      <path id="Path_21218" data-name="Path 21218" class="cls-1" d="m37.24,63.58c-2.38,0-4.74.18-7.06-.04-3.22-.47-5.59-3.26-5.53-6.51.03-3.24,2.38-5.99,5.58-6.51.4-.06.81-.09,1.22-.09,1.92,0,3.84,0,5.8,0v13.16Z"/>
      <path id="Path_21219" data-name="Path 21219" class="cls-1" d="m32.74,65.74h4.76c.15,1.12.3,2.22.45,3.33.16,1.21.31,2.43.49,3.64.16,1.14-.18,1.65-1.3,1.9-.56.12-1.12.26-1.69.37-.69.2-1.41-.2-1.61-.89-.02-.07-.03-.14-.04-.21-.37-2.62-.71-5.25-1.06-7.88,0-.08,0-.17,0-.25"/>
      <path id="Path_21220" data-name="Path 21220" class="cls-1" d="m72.03,66.05c.02.75-.57,1.37-1.31,1.39-.25,0-.49-.05-.71-.18-.9-.48-1.77-1.01-2.65-1.52-.46-.26-.92-.51-1.37-.79-.66-.35-.91-1.17-.55-1.83.35-.66,1.17-.91,1.83-.55.03.01.06.03.08.05,1.33.75,2.65,1.52,3.97,2.29.42.23.69.66.71,1.14"/>
      <path id="Path_21221" data-name="Path 21221" class="cls-1" d="m72.03,48.07c-.03.46-.29.88-.7,1.1-1.34.78-2.67,1.56-4.02,2.31-.65.37-1.47.14-1.84-.5s-.14-1.47.5-1.84c1.33-.79,2.66-1.57,4.01-2.31.65-.38,1.47-.16,1.85.48.13.23.2.49.18.76"/>
      <path id="Path_21222" data-name="Path 21222" class="cls-1" d="m71.75,58.4c-.7,0-1.39.01-2.09,0-.75.06-1.4-.49-1.46-1.24-.06-.75.49-1.4,1.24-1.46.07,0,.14,0,.21,0,1.43-.01,2.86-.01,4.28,0,.75-.03,1.38.55,1.41,1.29s-.55,1.38-1.29,1.41c-.03,0-.07,0-.1,0-.73.02-1.46,0-2.19,0"/>
    </g>
  </g>
</svg>